<svg width="41" height="27" viewBox="0 0 41 27" fill="none" xmlns="http://www.w3.org/2000/svg">
<path d="M11.3259 11.7813C10.8512 11.7813 10.4468 11.8779 10.2141 11.9487C10.0803 11.9894 9.98812 12.1056 9.96491 12.2435C9.9119 12.5582 10.2371 12.8392 10.5539 12.8005C10.6973 12.783 10.8587 12.7714 11.0348 12.7714C11.442 12.7714 11.7395 12.8167 11.7395 13.1474C11.7395 13.3158 11.5928 13.4131 11.4247 13.4037C11.3541 13.3997 11.2841 13.3967 11.2338 13.3967C10.2883 13.3967 9.2954 13.799 9.2954 15.0164C9.2954 15.9753 9.94625 16.1942 10.3506 16.1942C10.8376 16.1942 11.1498 15.9948 11.3181 15.8475C11.404 15.7723 11.4628 15.7966 11.4529 15.9104C11.4436 16.0181 11.5285 16.1106 11.6365 16.1106H11.9716C12.2163 16.1106 12.4238 15.9306 12.4583 15.6884L12.7947 13.329C12.8164 13.177 12.8323 13.0229 12.814 12.8704C12.6871 11.8173 11.6878 11.7813 11.3259 11.7813ZM10.7862 15.2777C10.447 15.2777 10.3584 15.0192 10.3584 14.8648C10.3584 14.566 10.5206 14.2062 11.3216 14.2062C11.4643 14.2067 11.5669 14.3302 11.5407 14.4705C11.4811 14.7905 11.2814 15.2777 10.7862 15.2777ZM14.2005 13.1467C14.2005 13.6927 15.5029 13.4243 15.5029 14.7827C15.5029 16.2352 14.0957 16.1715 13.8499 16.1715C13.7525 16.1715 13.6623 16.1701 13.5788 16.1675C13.0277 16.1507 12.6861 15.6265 12.7692 15.0816C12.7706 15.0745 13.2295 15.2487 13.7402 15.2487C14.0348 15.2487 14.4172 15.2197 14.4172 14.8684C14.4172 14.3401 13.0489 14.4675 13.0489 13.2154C13.0489 12.1113 13.8691 11.7884 14.6778 11.7884C14.882 11.7884 15.0604 11.7975 15.2082 11.8098C15.4798 11.8325 15.6565 12.0823 15.6179 12.3521C15.5788 12.6254 15.3335 12.82 15.058 12.8021C14.9497 12.795 14.8521 12.7898 14.8018 12.7898C14.4123 12.7905 14.2005 12.8755 14.2005 13.1467ZM16.7947 14.8096C16.7706 14.959 16.8124 15.1623 17.1927 15.1623C17.3424 15.1623 17.455 15.2626 17.4332 15.4108L17.3871 15.7245C17.3572 15.9278 17.2125 16.1034 17.0116 16.1466C16.8746 16.1761 16.7063 16.2013 16.5185 16.2027C16.0093 16.2076 15.6474 15.9215 15.6474 15.2763C15.6474 14.9143 16.0806 12.3633 16.2375 11.5187C16.27 11.3436 16.3922 11.248 16.5704 11.248H17.0618C17.2307 11.248 17.3588 11.4003 17.3297 11.5667L17.3219 11.6116C17.297 11.7545 17.407 11.8854 17.552 11.8854C17.6935 11.8854 17.8025 12.0102 17.7835 12.1504L17.7194 12.6233C17.6968 12.7897 17.5548 12.9137 17.3869 12.9137C17.2223 12.9137 17.082 13.0331 17.0557 13.1956L16.7947 14.8096ZM-nan -nanL21.0114 14.3585C21.0114 14.3585 21.1552 13.6503 21.1552 13.362C21.1552 12.6418 20.7968 11.7636 19.5971 11.7636C18.4979 11.7643 17.6842 12.9484 17.6842 14.2869C17.6842 15.8316 18.7033 16.1984 19.5723 16.1984C20.024 16.1984 20.3331 16.1413 20.517 16.0915C20.6522 16.0548 20.7415 15.9376 20.7667 15.7998C20.8316 15.4447 20.4628 15.1452 20.1066 15.2033C19.9921 15.222 19.8741 15.2338 19.7586 15.2338C19.5306 15.2338 19.3547 15.2008 19.2192 15.1476C18.6838 14.9373 19.1971 14.3585 19.7724 14.3585H21.0114L-nan -nanZM19.6006 12.743C19.796 12.743 19.9181 12.8126 19.9937 12.9094C20.1998 13.1735 19.8319 13.4916 19.4969 13.4916C19.1619 13.4916 18.9009 13.1899 19.1291 12.9446C19.2359 12.8299 19.3874 12.743 19.6006 12.743ZM8.61127 10.9102C9.17462 10.9102 9.60334 11.4157 9.51131 11.9715L8.90191 15.6519C8.85763 15.9194 8.62631 16.1155 8.35518 16.1155H8.0981C7.89236 16.1155 7.73534 15.9317 7.76757 15.7285C7.83125 15.327 7.25891 15.1806 7.12195 15.5633L7.01101 15.8733C6.959 16.0186 6.8213 16.1155 6.66695 16.1155H6.50975C6.32157 16.1155 6.16772 15.9655 6.16304 15.7774C6.15259 15.3576 5.54453 15.3141 5.47438 15.7281L5.45893 15.8192C5.42993 15.9903 5.28171 16.1155 5.10817 16.1155H4.96915C4.64737 16.1155 4.40272 15.8264 4.456 15.5091L5.10594 11.6379C5.17646 11.2178 5.54009 10.9102 5.96603 10.9102H6.35865C6.61642 10.9102 6.82664 11.1167 6.83115 11.3745C6.84044 11.9048 7.58194 12.0198 7.75144 11.5172L7.83708 11.2633C7.90824 11.0523 8.10612 10.9102 8.32882 10.9102H8.61127ZM23.2215 9.46111C23.379 9.82925 23.098 10.2246 22.6975 10.2246H18.7407C18.3306 10.2246 17.9891 9.91058 18.1741 9.54462C18.2652 9.36434 18.5174 9.12476 18.7194 9.12476H22.6997C22.9259 9.12476 23.1325 9.25315 23.2215 9.46111ZM21.8571 7.1647C22.1469 7.53332 21.8687 8.04614 21.3999 8.04614H20.0281C19.5765 8.04614 19.2998 7.55444 19.5595 7.18493C19.6651 7.03459 19.8393 6.94699 20.0231 6.94699H21.4014C21.5787 6.94699 21.7476 7.02525 21.8571 7.1647ZM20.6693 21.1085C20.6657 21.1116 20.6602 21.1117 20.6567 21.1085C20.5407 21.0035 20.4281 20.8951 20.3184 20.7838C20.0205 20.4818 20.2495 19.9923 20.6737 19.9923C21.0977 19.9923 21.3224 20.4777 21.0216 20.7766C20.9137 20.8837 20.8035 20.9886 20.691 21.0911C20.6907 21.0913 20.6904 21.0915 20.69 21.0915H20.6888C20.6886 21.0915 20.6885 21.0918 20.6886 21.0919C20.6887 21.0921 20.6887 21.0925 20.6885 21.0927C20.6823 21.0979 20.6757 21.1031 20.6693 21.1085ZM22.6597 18.6559C22.5577 18.8312 22.3684 18.9342 22.1656 18.9342H19.1769C18.973 18.9342 18.7829 18.8305 18.679 18.655C18.4585 18.2827 18.7386 17.8351 19.1713 17.8351H22.1633C22.5945 17.8351 22.8766 18.2833 22.6597 18.6559ZM23.5794 11.8337C23.6867 11.8326 23.7437 11.9398 23.6994 12.0375C23.6409 12.1664 23.5846 12.308 23.5289 12.4963C23.4342 12.8164 23.023 13.0431 22.8489 13.3279C22.5991 13.7367 22.494 14.6161 22.3254 15.6625C22.2823 15.9295 22.0507 16.124 21.7802 16.124C21.4371 16.124 21.1756 15.817 21.2301 15.4783L21.7401 12.3102C21.7793 12.0666 21.9896 11.8875 22.2363 11.8875H22.722C22.7765 11.8875 22.818 11.9362 22.8094 11.99C22.7937 12.0883 22.9709 12.1617 23.0427 12.0926C23.1867 11.9541 23.3716 11.8337 23.5794 11.8337ZM25.8138 15.1347C25.828 15.1347 25.8425 15.1343 25.8571 15.1335C26.234 15.1138 26.632 15.3878 26.571 15.7602C26.5412 15.9416 26.407 16.0887 26.2268 16.1248C26.0271 16.1648 25.7646 16.2083 25.5659 16.2083C24.2614 16.2083 23.5992 15.3082 23.5992 13.9449C23.5992 11.8889 24.8266 10.794 26.0879 10.794C26.3871 10.794 26.7118 10.868 26.9525 10.9381C27.1701 11.0015 27.2944 11.22 27.2599 11.444C27.2047 11.8016 26.7718 11.9952 26.4155 11.9323C26.3273 11.9168 26.234 11.9073 26.1375 11.9073C25.3938 11.9073 24.7267 12.617 24.7267 13.9073C24.7267 14.5426 25.0376 15.1347 25.8138 15.1347ZM36.4838 15.5129C36.4307 15.5412 36.3896 15.5823 36.3598 15.6361C36.3301 15.6892 36.3152 15.7444 36.3152 15.8018C36.3152 15.8592 36.3301 15.9137 36.3598 15.9661C36.3889 16.0185 36.43 16.0603 36.4824 16.0901C36.5355 16.1191 36.59 16.134 36.6467 16.134C36.7047 16.134 36.76 16.1191 36.8117 16.0901C36.8641 16.0603 36.9052 16.0185 36.9342 15.9661C36.9647 15.9137 36.9781 15.8592 36.9781 15.8018C36.9781 15.7437 36.964 15.6885 36.9342 15.6361C36.9052 15.5823 36.8627 15.5412 36.8096 15.5129C36.7572 15.4838 36.7033 15.4697 36.6467 15.4697C36.5921 15.4697 36.5376 15.4838 36.4838 15.5129ZM36.8868 15.6623C36.9115 15.7069 36.925 15.7529 36.925 15.8004C36.925 15.8478 36.913 15.8946 36.8882 15.9378C36.8641 15.9817 36.8301 16.015 36.7855 16.0412C36.7416 16.0653 36.6962 16.078 36.6488 16.078C36.6006 16.078 36.5546 16.0653 36.5114 16.0412C36.4668 16.0164 36.4335 15.9824 36.408 15.9378C36.3825 15.8932 36.3712 15.8478 36.3712 15.8004C36.3712 15.7529 36.3832 15.7069 36.4094 15.6623C36.4342 15.6184 36.4675 15.5844 36.5128 15.5596C36.5581 15.5348 36.6028 15.5242 36.6488 15.5242C36.6948 15.5242 36.7402 15.5362 36.7834 15.5596C36.8287 15.5844 36.862 15.6177 36.8868 15.6623ZM32.4491 14.4045C32.4491 15.3004 32.8946 16.1779 33.8039 16.1779C34.1595 16.1779 34.4289 16.0433 34.601 15.9202C34.67 15.8708 34.7959 15.9328 34.7856 16.017C34.7795 16.0671 34.8186 16.1113 34.8691 16.1113H35.38C35.6434 16.1113 35.8679 15.92 35.9098 15.6599L36.5719 11.542C36.6248 11.2127 36.3701 10.9143 36.0365 10.9149L35.9623 10.9151C35.7399 10.9155 35.5506 11.0771 35.5151 11.2967C35.4508 11.6958 34.8302 11.8722 34.4294 11.8191C34.3828 11.8129 34.3348 11.8096 34.2855 11.8096C33.2834 11.8103 32.4491 13.0178 32.4491 14.4045ZM35.0681 13.7678C35.0681 14.345 34.7826 15.1163 34.1906 15.1163C33.7968 15.1163 33.6127 14.7862 33.6127 14.2678C33.6127 13.4201 33.993 12.8613 34.4739 12.8613C34.8662 12.862 35.0681 13.1318 35.0681 13.7678ZM36.8464 19.2416C36.8413 19.2369 36.8445 19.2183 36.851 19.2159C36.8663 19.2104 36.8795 19.2018 36.8903 19.1906C36.908 19.1715 36.9179 19.1488 36.9179 19.1226C36.9179 19.1042 36.9123 19.0865 36.9016 19.0702C36.891 19.0539 36.8754 19.0419 36.8563 19.0355C36.8386 19.0284 36.8081 19.0249 36.7664 19.0249C36.6983 19.0249 36.6431 19.0801 36.6431 19.1481V19.3535C36.6431 19.3695 36.6561 19.3825 36.6722 19.3825C36.6882 19.3825 36.7012 19.3695 36.7012 19.3535V19.2636C36.7012 19.2452 36.7161 19.2303 36.7345 19.2303C36.7543 19.2303 36.7706 19.2345 36.7798 19.243C36.7947 19.2551 36.8159 19.2827 36.8407 19.3259L36.8634 19.3671C36.8686 19.3766 36.8786 19.3825 36.8895 19.3825C36.913 19.3825 36.9273 19.3567 36.9148 19.3369L36.8995 19.3124C36.8783 19.2799 36.8606 19.2565 36.8464 19.2416ZM36.7706 19.1821H36.7536C36.7239 19.1821 36.6998 19.158 36.6998 19.1283C36.6998 19.0986 36.7239 19.0745 36.7536 19.0745H36.7664C36.794 19.0745 36.8124 19.0766 36.823 19.0808C36.8344 19.0851 36.8414 19.0915 36.8478 19.0993C36.8535 19.1078 36.8563 19.117 36.8563 19.1269C36.8563 19.1432 36.8506 19.1573 36.8386 19.1672C36.8266 19.1772 36.8032 19.1821 36.7706 19.1821ZM39.6368 0.539062H1.69625C1.12684 0.539062 0.666504 1.00011 0.666504 1.56881V25.4321C0.666504 26.0008 1.12684 26.4619 1.69625 26.4619H39.6368C40.2062 26.4619 40.6665 26.0008 40.6665 25.4321V1.56881C40.6665 1.00011 40.2062 0.539062 39.6368 0.539062ZM37.0751 19.3634C37.0454 19.4173 37.005 19.4583 36.9526 19.4874C36.9002 19.5164 36.845 19.5313 36.7883 19.5313C36.7302 19.5313 36.675 19.5164 36.6226 19.4874C36.5709 19.4583 36.5298 19.4173 36.4994 19.3634C36.4703 19.3117 36.4555 19.2565 36.4555 19.1991C36.4555 19.1418 36.4703 19.0872 36.5001 19.0334C36.5291 18.9796 36.5716 18.9392 36.624 18.9102C36.6771 18.8825 36.7309 18.8677 36.7876 18.8677C36.8436 18.8677 36.8974 18.8825 36.9498 18.9102C37.0029 18.9392 37.0447 18.9796 37.0737 19.0334C37.1035 19.0872 37.1176 19.1425 37.1176 19.1991C37.1176 19.2558 37.1049 19.3124 37.0751 19.3634ZM37.8174 13.5008C37.8188 19.1701 33.2253 23.7678 27.5553 23.7692C23.2728 23.7704 18.0651 23.7664 13.7827 23.7664C8.11622 23.7664 3.51707 19.168 3.51707 13.5008C3.51707 7.85634 8.0801 3.27136 13.7168 3.23453C13.7387 3.23453 13.7607 3.23453 13.7827 3.23453C18.066 3.23453 23.267 3.23355 27.5504 3.2324C33.2185 3.23028 37.8145 7.82299 37.8188 13.4905C37.8188 13.4939 37.8174 13.4974 37.8174 13.5008ZM36.6268 15.6276C36.558 15.6276 36.5022 15.6834 36.5022 15.7522V15.9555C36.5022 15.9715 36.5152 15.9845 36.5312 15.9845C36.5473 15.9845 36.5603 15.9715 36.5603 15.9555V15.8663C36.5603 15.8479 36.5752 15.833 36.5936 15.833C36.6141 15.833 36.6304 15.8372 36.6403 15.845C36.6552 15.8578 36.675 15.8847 36.7012 15.9293L36.7232 15.9697C36.7284 15.9793 36.7385 15.9852 36.7494 15.9852C36.7728 15.9852 36.7871 15.9595 36.7746 15.9396L36.7593 15.9151C36.7387 15.8818 36.7203 15.8585 36.7069 15.8443C36.7011 15.839 36.7041 15.8213 36.7114 15.8186C36.7264 15.813 36.7393 15.8045 36.7501 15.7933C36.7678 15.7749 36.7784 15.7508 36.7784 15.7253C36.7784 15.7076 36.7727 15.6892 36.7614 15.6729C36.7501 15.6573 36.7352 15.6453 36.7175 15.6382C36.6998 15.6311 36.6686 15.6276 36.6268 15.6276ZM36.7083 15.7005C36.7147 15.7097 36.7175 15.7175 36.7175 15.7296C36.7175 15.7452 36.7111 15.7586 36.7005 15.7685C36.687 15.7791 36.6651 15.7834 36.6318 15.7834H36.6155C36.5858 15.7834 36.5617 15.7593 36.5617 15.7296C36.5617 15.6998 36.5858 15.6757 36.6155 15.6757H36.6268C36.6375 15.6757 36.6468 15.6761 36.6548 15.6766C36.6751 15.678 36.6976 15.6832 36.7083 15.7005ZM29.044 11.7813C28.5684 11.7813 28.1639 11.8779 27.9312 11.9487C27.7976 11.9894 27.7055 12.1055 27.6822 12.2432C27.629 12.558 27.9541 12.8392 28.271 12.8005C28.4143 12.783 28.5756 12.7714 28.7515 12.7714C29.1587 12.7714 29.4569 12.8167 29.4569 13.1474C29.4569 13.3164 29.3092 13.4131 29.1404 13.4037C29.0698 13.3997 28.9998 13.3967 28.9491 13.3967C28.0043 13.3967 27.0121 13.799 27.0121 15.0164C27.0121 15.9753 27.6637 16.1942 28.0674 16.1942C28.5544 16.1942 28.8666 15.9944 29.0349 15.847C29.1207 15.7718 29.1795 15.7963 29.1697 15.9101C29.1604 16.0179 29.2454 16.1106 29.3536 16.1106H29.6879C29.9324 16.1106 30.1397 15.9308 30.1743 15.6887L30.5433 13.1007C30.5454 11.8223 29.4307 11.7813 29.044 11.7813ZM28.5057 15.2777C28.1658 15.2777 28.078 15.0192 28.078 14.8648C28.078 14.566 28.2402 14.2062 29.0411 14.2062C29.1836 14.2067 29.2861 14.3304 29.2598 14.4704C29.1998 14.7905 28.9999 15.2777 28.5057 15.2777ZM32.7058 12.4969C32.6107 12.8164 32.2 13.042 32.026 13.3263C31.7761 13.7347 31.6713 14.6146 31.502 15.662C31.4588 15.929 31.2271 16.1233 30.9567 16.1233C30.6136 16.1233 30.3519 15.8162 30.4065 15.4774L30.9164 12.3101C30.9556 12.0661 31.1661 11.8868 31.4132 11.8868H31.8987C31.9534 11.8868 31.9951 11.9357 31.9865 11.9897C31.9708 12.0884 32.1483 12.1617 32.2203 12.0924C32.3646 11.9537 32.5498 11.833 32.7579 11.833C32.8648 11.833 32.9215 11.9402 32.8772 12.0375C32.8185 12.1664 32.7619 12.3082 32.7058 12.4969Z" fill="white"/>
</svg>
