<svg width="21" height="21" viewBox="0 0 21 21" fill="none" xmlns="http://www.w3.org/2000/svg">
<path d="M12.3597 10.0068L19.5263 2.85682C19.8402 2.54298 20.0165 2.11732 20.0165 1.67349C20.0165 1.22965 19.8402 0.803992 19.5263 0.490153C19.2125 0.176313 18.7868 0 18.343 0C17.8992 0 17.4735 0.176313 17.1597 0.490153L10.0097 7.65682L2.85966 0.490153C2.54582 0.176313 2.12017 -3.30684e-09 1.67633 0C1.23249 3.30684e-09 0.806837 0.176313 0.492997 0.490153C0.179158 0.803992 0.00284434 1.22965 0.00284433 1.67349C0.00284433 2.11732 0.179158 2.54298 0.492997 2.85682L7.65966 10.0068L0.492997 17.1568C0.336783 17.3118 0.212793 17.4961 0.128179 17.6992C0.0435641 17.9023 0 18.1201 0 18.3402C0 18.5602 0.0435641 18.778 0.128179 18.9811C0.212793 19.1842 0.336783 19.3685 0.492997 19.5235C0.647935 19.6797 0.83227 19.8037 1.03537 19.8883C1.23847 19.9729 1.45631 20.0165 1.67633 20.0165C1.89635 20.0165 2.11419 19.9729 2.31729 19.8883C2.52039 19.8037 2.70473 19.6797 2.85966 19.5235L10.0097 12.3568L17.1597 19.5235C17.3146 19.6797 17.4989 19.8037 17.702 19.8883C17.9051 19.9729 18.123 20.0165 18.343 20.0165C18.563 20.0165 18.7809 19.9729 18.984 19.8883C19.1871 19.8037 19.3714 19.6797 19.5263 19.5235C19.6825 19.3685 19.8065 19.1842 19.8911 18.9811C19.9758 18.778 20.0193 18.5602 20.0193 18.3402C20.0193 18.1201 19.9758 17.9023 19.8911 17.6992C19.8065 17.4961 19.6825 17.3118 19.5263 17.1568L12.3597 10.0068Z" fill="#B59571"/>
</svg>
